<svg xmlns="http://www.w3.org/2000/svg" viewBox="0 0 190.4 48"><defs><style>.cls-1{fill:#ee2324;}.cls-2{fill:#fff;}</style></defs><g id="Layer_2" data-name="Layer 2"><g id="Layer_1-2" data-name="Layer 1"><rect class="cls-1" width="190.4" height="48"/><polygon class="cls-2" points="176.36 34.06 180.68 34.06 180.68 37.95 167.59 37.95 167.59 34.06 171.9 34.06 171.9 11.97 176.36 11.97 176.36 34.06"/><path class="cls-2" d="M165.17,12V38h-4V29.53c-1.47,1.29-2.33,2.16-4.67,2.16-2.13,0-3.39-1.55-3.39-4.07V12h4V27a1.29,1.29,0,0,0,1.44,1.41,4.66,4.66,0,0,0,2.59-1.23V12Z"/><path class="cls-2" d="M136.89,20.89h8.49v-2.8c0-2.24-.79-3.17-2.23-3.17s-2.23.93-2.23,3.17v.43h-4c.07-4.1,1.77-6.91,6.26-6.91s6.26,3,6.26,7.2v5.68c0,4.25-1.65,7.2-6.26,7.2s-6.26-3-6.26-7.2v-3.6m4,3.31v1c0,2.23.79,3.17,2.23,3.17s2.23-.94,2.23-3.17v-1Z"/><path class="cls-2" d="M117.7,31.54c.18,2.23,1.37,2.88,2.38,2.88,1.44,0,2.23-.94,2.23-2.55,0-4.43-9.07-6.55-9.07-13.6,0-4.29,2.88-6.66,7.05-6.66s6.52,3.31,6.69,7.2l-4.24.61c-.18-2.63-1.22-3.92-2.66-3.92a2.29,2.29,0,0,0-2.59,2.37c0,5.14,9.06,6.51,9.06,14,0,4.14-2.51,6.48-6.91,6.48-3.63,0-5.79-2.63-6.18-6.3Z"/><path class="cls-2" d="M111.66,28v3.31h-2.23v5.21h-4V31.33h-2.7V28h2.7V16.86c0-1-.43-1.58-1.37-1.58H102.7V11.82a7.12,7.12,0,0,1,2-.21c3,0,4.72,1.4,4.72,4.35V28Z"/><path class="cls-2" d="M100.5,25.64c-.21,3.92-2.69,6.05-6.47,6.05S88.16,30,88.16,26.43V14a13.64,13.64,0,0,0-.25-2h3.85c0,.54.18,1,.22,1.51a6.86,6.86,0,0,1,4.71-1.87c2.73,0,4.1,1.87,4.1,4.35,0,4.25-2.8,6.59-8.6,8.78v1.15c0,1.62.65,2.49,2,2.49,1.84,0,2.23-1.08,2.3-2.74h4m-8.31-3.85c3.67-2.09,4.57-3.42,4.57-5.11,0-1.26-.65-1.76-1.87-1.76a3.56,3.56,0,0,0-2.7,1.8Z"/><path class="cls-2" d="M84.1,12V31.33H80.28V29.38c-1.69,1.44-2.55,2.31-4.89,2.31-2.12,0-3.38-1.55-3.38-4.07V12h4V27a1.28,1.28,0,0,0,1.44,1.41,4.72,4.72,0,0,0,2.59-1.23V12Z"/><path class="cls-2" d="M59.85,12v2h.07c1.33-1.69,2.3-2.37,4.32-2.37,2.52,0,4.1,1.87,4.1,5.4v9.28c0,3.52-1.58,5.4-4.1,5.4-1.77,0-2.59-.72-4.18-2V38H56V12h3.82m.21,15.4a4.11,4.11,0,0,0,2.31,1c1.08,0,1.94-.58,1.94-3.14V18.05c0-2.55-.86-3.13-1.94-3.13a4,4,0,0,0-2.31,1Z"/><path class="cls-2" d="M52.58,25.64c-.22,3.92-2.7,6.05-6.48,6.05S40.24,30,40.24,26.43V14A15.07,15.07,0,0,0,40,12h3.85c0,.54.18,1,.21,1.51a6.87,6.87,0,0,1,4.72-1.87c2.73,0,4.1,1.87,4.1,4.35,0,4.25-2.81,6.59-8.6,8.78v1.15c0,1.62.65,2.49,2,2.49,1.83,0,2.23-1.08,2.3-2.74h4m-8.31-3.85c3.67-2.09,4.57-3.42,4.57-5.11,0-1.26-.65-1.76-1.87-1.76a3.53,3.53,0,0,0-2.7,1.8Z"/><path class="cls-2" d="M36.17,12V31.33H32.32V29.06h-.07a5.22,5.22,0,0,1-4.57,2.63h-.83V27.48a9.19,9.19,0,0,0,2.59.39,2.53,2.53,0,0,0,2.7-2.59V12Z"/><path class="cls-2" d="M16,12v2H16c1.33-1.69,2.3-2.37,4.32-2.37,2.52,0,4.1,1.87,4.1,5.4v9.28c0,3.52-1.58,5.4-4.1,5.4-1.77,0-2.59-.72-4.18-2V38h-4V12H16m.21,15.4a4.11,4.11,0,0,0,2.31,1c1.08,0,1.94-.58,1.94-3.14V18.05c0-2.55-.86-3.13-1.94-3.13a4,4,0,0,0-2.31,1Z"/></g></g></svg>